<svg width="160" height="90" viewBox="0 0 160 90" fill="none" xmlns="http://www.w3.org/2000/svg">
<g clip-path="url(#clip0_6_39)">
<rect width="160" height="90" fill="#211E33"/>
<path d="M43.3922 27.0811C44.5606 25.9275 46.4394 25.9275 47.6078 27.0811L129.933 108.365C131.842 110.25 130.507 113.5 127.825 113.5H-36.8253C-39.5072 113.5 -40.8415 110.25 -38.9331 108.365L43.3922 27.0811Z" fill="#797979"/>
<path d="M114.392 15.0811C115.561 13.9275 117.439 13.9275 118.608 15.0811L200.933 96.3652C202.842 98.2495 201.507 101.5 198.825 101.5H34.1747C31.4928 101.5 30.1585 98.2495 32.0669 96.3652L114.392 15.0811Z" fill="#5D5D5D"/>
<path d="M50.4275 44.2875C51.5927 42.3454 54.4073 42.3454 55.5725 44.2875L83.2739 90.4565C84.4736 92.4561 83.0333 95 80.7014 95H25.2986C22.9667 95 21.5263 92.4561 22.7261 90.4565L50.4275 44.2875Z" fill="#2A442B"/>
<path d="M9.85627 49.929C10.9876 47.8196 14.0123 47.8196 15.1437 49.929L39.6303 95.582C40.7023 97.5806 39.2545 100 36.9866 100H-11.9866C-14.2545 100 -15.7023 97.5806 -14.6304 95.582L9.85627 49.929Z" fill="#3B573D"/>
<circle cx="6" cy="8" r="19" fill="#FFF8B1"/>
</g>
<defs>
<clipPath id="clip0_6_39">
<rect width="160" height="90" fill="white"/>
</clipPath>
</defs>
</svg>
